<svg width="140" height="99" viewBox="0 0 140 99" fill="none" xmlns="http://www.w3.org/2000/svg">
<path fill-rule="evenodd" clip-rule="evenodd" d="M18.8934 4.60659C24.7512 -1.25127 34.2487 -1.25127 40.1066 4.60659L54.2487 18.7487C60.1066 24.6066 60.1066 34.1041 54.2487 39.9619L40.1066 54.1041C34.2487 59.9619 24.7512 59.9619 18.8934 54.1041L4.75125 39.9619C-1.10662 34.1041 -1.10662 24.6066 4.75125 18.7487L18.8934 4.60659ZM59.3934 44.6066C65.2512 38.7487 74.7487 38.7487 80.6066 44.6066L94.7487 58.7487C100.607 64.6066 100.607 74.1041 94.7487 79.9619L80.6066 94.1041C74.7487 99.9619 65.2512 99.9619 59.3934 94.1041L45.2512 79.9619C39.3934 74.1041 39.3934 64.6066 45.2512 58.7487L59.3934 44.6066ZM120.607 4.60659C114.749 -1.25127 105.251 -1.25127 99.3934 4.60659L85.2513 18.7487C79.3934 24.6066 79.3934 34.1041 85.2513 39.9619L99.3934 54.1041C105.251 59.9619 114.749 59.9619 120.607 54.1041L134.749 39.9619C140.607 34.1041 140.607 24.6066 134.749 18.7487L120.607 4.60659Z" fill="#0000FF"/>
</svg>
