<svg width="40" height="40" viewBox="0 0 40 40" fill="none" xmlns="http://www.w3.org/2000/svg">
<g clip-path="url(#clip0_3_114)">
<path d="M12.9337 11.0846L17.5685 6.44811L17.6035 29.1671C17.6035 30.5478 18.7228 31.667 20.1034 31.667C21.484 31.667 22.6033 30.5478 22.6033 29.1671L22.5683 6.47647L27.1765 11.0846C28.1356 12.0777 29.7182 12.1052 30.7113 11.146C31.7044 10.1869 31.7319 8.60427 30.7727 7.61119C30.7525 7.59033 30.7321 7.56986 30.7113 7.54978L25.3582 2.19665C22.4294 -0.732205 17.6808 -0.732205 14.752 2.19658L14.7519 2.19665L9.39886 7.5497C8.43968 8.54279 8.46718 10.1254 9.46026 11.0846C10.429 12.0202 11.9649 12.0202 12.9337 11.0846Z" fill="black"/>
<path d="M37.4993 24.1672C36.1187 24.1672 34.9994 25.2865 34.9994 26.6671V34.3184C34.9985 34.6945 34.6939 34.9992 34.3178 35.0001H5.68231C5.30623 34.9991 5.00156 34.6945 5.0007 34.3184V26.6671C5.0007 25.2865 3.88145 24.1672 2.50081 24.1672C1.12016 24.1672 0.000915527 25.2865 0.000915527 26.6671V34.3184C0.00458724 37.4547 2.54612 39.9962 5.68231 39.9998H34.3177C37.454 39.9962 39.9954 37.4546 39.9991 34.3184V26.6671C39.9992 25.2865 38.8799 24.1672 37.4993 24.1672Z" fill="black"/>
</g>
<defs>
<clipPath id="clip0_3_114">
<rect width="40" height="40" fill="white"/>
</clipPath>
</defs>
</svg>
